<svg width="43" height="57" viewBox="0 0 43 57" fill="none" xmlns="http://www.w3.org/2000/svg">
  <path d="M5.28151 51.1768L4.08568 52.1436C3.74401 52.4121 3.3276 52.5625 2.90052 52.5625C1.85417 52.5625 1 51.7031 1 50.6504V21.625C1 10.2383 10.1823 1 21.5 1C32.8177 1 42 10.2383 42 21.625V50.6504C42 51.7031 41.1458 52.5625 40.0995 52.5625C39.6724 52.5625 39.256 52.4121 38.9143 52.1436L37.7185 51.1768C36.2878 50.0273 34.2164 50.21 33.0099 51.5957L29.7534 55.3555C29.401 55.7637 28.8779 56 28.3333 56C27.7888 56 27.2763 55.7637 26.9133 55.3555L24.0732 52.0791C22.7172 50.5107 20.2935 50.5107 18.9268 52.0791L16.0867 55.3555C15.7344 55.7637 15.2112 56 14.6667 56C14.1221 56 13.6096 55.7637 13.2466 55.3555L9.9901 51.5957C8.78359 50.21 6.71224 50.0273 5.28151 51.1768ZM18.0833 21.625C18.0833 20.7133 17.7234 19.839 17.0826 19.1943C16.4419 18.5497 15.5728 18.1875 14.6667 18.1875C13.7605 18.1875 12.8915 18.5497 12.2507 19.1943C11.61 19.839 11.25 20.7133 11.25 21.625C11.25 22.5367 11.61 23.411 12.2507 24.0557C12.8915 24.7003 13.7605 25.0625 14.6667 25.0625C15.5728 25.0625 16.4419 24.7003 17.0826 24.0557C17.7234 23.411 18.0833 22.5367 18.0833 21.625ZM28.3333 25.0625C29.2395 25.0625 30.1085 24.7003 30.7493 24.0557C31.39 23.411 31.75 22.5367 31.75 21.625C31.75 20.7133 31.39 19.839 30.7493 19.1943C30.1085 18.5497 29.2395 18.1875 28.3333 18.1875C27.4272 18.1875 26.5581 18.5497 25.9174 19.1943C25.2766 19.839 24.9167 20.7133 24.9167 21.625C24.9167 22.5367 25.2766 23.411 25.9174 24.0557C26.5581 24.7003 27.4272 25.0625 28.3333 25.0625Z" stroke="#0066CC" stroke-width="2"/>
</svg>
